<svg
   xmlns="http://www.w3.org/2000/svg"
   height="175.94801"
   width="175.94801">
  <path
     d="m 87.796991,0 c -44.90034,0 -42.09648,19.4715 -42.09648,19.4715 l 0.05,20.17227 42.8473,0 0,6.05668 -59.866091,0 c 0,0 -28.73172,-3.25844 -28.73172,42.04643 0,45.30485 25.07769,43.69824 25.07769,43.69824 l 14.966521,0 0,-21.02321 c 0,0 -0.80673,-25.07769 24.67724,-25.07769 25.48398,0 42.496919,0 42.496919,0 0,0 23.87636,0.38596 23.87636,-23.07547 0,-23.46144 0,-38.79283 0,-38.79283 0,0 3.62509,-23.47592 -43.297799,-23.47592 z m -23.62608,13.56498 c 4.26299,0 7.70851,3.44551 7.70851,7.70851 0,4.26299 -3.44552,7.70851 -7.70851,7.70851 -4.263,0 -7.70851,-3.44552 -7.70851,-7.70851 0,-4.263 3.44551,-7.70851 7.70851,-7.70851 z"
     style="color:#000000;display:inline;overflow:visible;visibility:visible;fill:#2a6db2;fill-opacity:1;fill-rule:nonzero;stroke:none;stroke-width:1;marker:none" />
  <path
     style="color:#000000;display:inline;overflow:visible;visibility:visible;fill:#505050;fill-opacity:1;fill-rule:nonzero;stroke:none;stroke-width:1;marker:none"
     d="m 89.072161,175.94801 c 44.900349,0 42.096469,-19.47149 42.096469,-19.47149 l -0.05,-20.17228 -42.847309,0 0,-6.05668 59.866099,0 c 0,0 28.73172,3.25843 28.73172,-42.04644 2e-5,-45.30485 -25.07769,-43.69824 -25.07769,-43.69824 l -14.96652,0 0,21.02321 c 0,0 0.80675,25.07768 -24.67725,25.07768 -25.483969,0 -42.496909,0 -42.496909,0 0,0 -23.87636,-0.38596 -23.87636,23.0755 0,23.46142 0,38.79282 0,38.79282 0,0 -3.62509,23.47592 43.2978,23.47592 z m 23.626079,-13.56497 c -4.26299,0 -7.70851,-3.44552 -7.70851,-7.70851 0,-4.263 3.44552,-7.70851 7.70851,-7.70851 4.263,0 7.70851,3.44551 7.70851,7.70851 2e-5,4.26299 -3.44551,7.70851 -7.70851,7.70851 z" />
</svg>
